<?xml version="1.0" encoding="utf-8"?>
<!-- Generator: Adobe Illustrator 19.1.0, SVG Export Plug-In . SVG Version: 6.00 Build 0)  -->
<!DOCTYPE svg PUBLIC "-//W3C//DTD SVG 1.1//EN" "http://www.w3.org/Graphics/SVG/1.1/DTD/svg11.dtd">
<svg version="1.1" id="Layer_1" xmlns="http://www.w3.org/2000/svg" xmlns:xlink="http://www.w3.org/1999/xlink" x="0px" y="0px"
	 viewBox="11 -11 150 150" style="enable-background:new 11 -11 150 150;" xml:space="preserve">
<style type="text/css">
	.st0{fill:url(#SVGID_1_);}
	.st1{fill:#361E2A;}
	.st2{fill:#1A1129;}
	.st3{fill:#7F4762;}
	.st4{fill:#705597;}
	.st5{fill:#9476C2;}
	.st6{fill:#FEFEFE;}
</style>
<linearGradient id="SVGID_1_" gradientUnits="userSpaceOnUse" x1="86" y1="4.929461e-010" x2="86" y2="150" gradientTransform="matrix(1 0 0 -1 0 128)">
	<stop  offset="0" style="stop-color:#000000"/>
	<stop  offset="2.608901e-002" style="stop-color:#010101"/>
	<stop  offset="1" style="stop-color:#1A1A1A"/>
</linearGradient>
<rect x="11" y="-11" class="st0" width="150" height="150"/>
<g>
	<path class="st1" d="M58.8,25.7c0-2.2,0-4.4,0-6.8c13.7,0,27.3,0,40.9,0c0.1,0.1,0.2,0.2,0.2,0.2c0.6,1.8,0.3,3.7,0.2,5.6
		c0,0.9-0.6,1.4-1.5,1.5c-0.6,0.1-1.1,0.1-1.7,0.1c-11.8,0-23.6,0-35.4,0c-0.8,0-1.7,0.1-2.5-0.3C59,25.9,58.9,25.8,58.8,25.7z"/>
	<path class="st2" d="M106.5,107.5c0,2.2,0,4.4,0,6.7c-13.6,0-27.1,0-40.9,0c0-2.2,0-4.5,0-6.7c0.1-0.1,0.2-0.2,0.2-0.2
		c0.8-0.4,1.7-0.3,2.5-0.3c11.8,0,23.6,0,35.4,0c0.8,0,1.7-0.1,2.5,0.3C106.4,107.4,106.4,107.5,106.5,107.5z"/>
	<path class="st2" d="M38.4,39.4c-2.2,0-4.4,0-6.7,0c0-4.5,0-9,0-13.6c6.8,0,13.6,0,20.3,0c1,2.2,0.7,4.5,0.2,6.8
		c-0.7,0.6-1.6,0.5-2.4,0.5c-2.8,0-5.6,0-8.3,0c-0.7,0-1.5-0.1-2.2,0.3c-0.7,1.8,0.1,3.9-0.6,5.7C38.5,39.2,38.5,39.3,38.4,39.4z"/>
	<path class="st2" d="M120.2,25.8c6.7,0,13.5,0,20.3,0c0,4.5,0,8.9,0,13.6c-2.2,0-4.5,0-6.7,0c-0.1-0.1-0.1-0.2-0.2-0.2
		c-0.5-1.1-0.3-2.3-0.3-3.5c0-0.7,0.1-1.5-0.3-2.2c-0.7-0.5-1.4-0.4-2.1-0.4c-2.8,0-5.5,0-8.3,0c-0.8,0-1.7,0.1-2.4-0.5
		C119.4,30.3,119.2,28,120.2,25.8z"/>
	<path class="st2" d="M45.2,93.9c-2.2,0-4.4,0-6.7,0c0-9.1,0-18.1,0-27.2c2.2,0,4.5,0,6.7,0c0.1,0.1,0.2,0.2,0.2,0.2
		c0.4,0.7,0.3,1.5,0.3,2.3c0,7.4,0,14.7,0,22.1c0,0.8,0.1,1.6-0.3,2.3C45.4,93.7,45.3,93.8,45.2,93.9z"/>
	<path class="st2" d="M127,66.6c2.2,0,4.4,0,6.7,0c0,9.1,0,18.1,0,27.2c-2.2,0-4.5,0-6.7,0c-0.1-0.1-0.2-0.2-0.2-0.2
		c-0.4-0.7-0.3-1.5-0.3-2.3c0-7.4,0-14.7,0-22.1c0-0.8-0.1-1.6,0.3-2.3C126.8,66.8,126.9,66.7,127,66.6z"/>
	<path class="st1" d="M106.5,12.1c0-2.2,0-4.4,0-6.7c4.5,0,9,0,13.5,0c0,4.4,0,8.9,0,13.5c-2.2,0-4.5,0-6.7,0
		c-0.1-0.1-0.1-0.1-0.2-0.2c-0.5-1.2-0.2-2.4-0.3-3.7c0-0.7,0.1-1.5-0.3-2.2c-1.9-0.7-3.9,0.2-5.8-0.6
		C106.7,12.2,106.6,12.2,106.5,12.1z"/>
	<path class="st2" d="M45.2,66.6c0-6.8,0-13.6,0-20.5c0.1-0.1,0.2-0.2,0.3-0.2c1.8-0.6,3.7-0.3,5.5-0.2c1.1,0.1,1.5,0.9,1.6,1.9
		c0.1,1.5,0,2.9,0,4.4c0,4,0,8,0,12c0,0.9,0.1,1.8-0.5,2.6C49.8,67.5,47.5,67.6,45.2,66.6L45.2,66.6z"/>
	<path class="st2" d="M127,46.2c0,6.8,0,13.6,0,20.5l0,0c-2.3,0.9-4.6,0.9-6.9,0c-0.6-0.7-0.5-1.6-0.5-2.4c0-5.2,0-10.4,0-15.6
		c0-2.6,0.4-3,2.9-3c1.4,0,2.8-0.3,4.2,0.3C126.8,46,126.9,46.1,127,46.2z"/>
	<path class="st1" d="M52,32.6c0-2.3,0-4.5,0-6.8c2.3,0,4.5,0,6.8-0.1l0,0c0.7,0.8,0.5,1.7,0.6,2.6c0.1,1.1-0.2,2.2,0.2,3.2
		c0.7,0.6,1.6,0.4,2.5,0.4c4.1,0,4.1,0.1,4.1,4.2c0,1.1,0.2,2.3-0.6,3.3c-0.2,0.1-0.4,0.3-0.6,0.3c-4,0.3-8,0.2-12.1,0.1
		c-0.6,0-1.2-0.3-1.3-0.9C51.4,36.8,51,34.6,52,32.6z"/>
	<path class="st1" d="M120.2,25.8c0,2.3,0,4.5,0,6.8c1,2,0.6,4.2,0.3,6.3c-0.1,0.5-0.6,0.9-1.1,0.9c-4.3,0.1-8.5,0.6-12.8-0.2
		c-1.2-2.1-0.7-4.4-0.4-6.6c0.1-0.9,1.1-0.9,1.8-0.9c1.4-0.1,2.8,0.1,4.3-0.3c0.9-1.9-0.1-4,0.7-5.8c0.1-0.1,0.2-0.2,0.2-0.2
		C115.6,25.8,117.9,25.8,120.2,25.8z"/>
	<path class="st2" d="M65.7,107.5c-4.5,0-9,0-13.6,0c0-2.3,0-4.6,0-6.8c0.1-0.1,0.2-0.1,0.2-0.2c0.7-0.4,1.5-0.3,2.3-0.3
		c2.9,0,5.8,0,8.7,0c0.8,0,1.7-0.1,2.4,0.5C66.5,103,66.6,105.3,65.7,107.5L65.7,107.5z"/>
	<path class="st2" d="M120.2,100.7c0,2.2,0,4.4,0,6.8c-4.6,0-9.1,0-13.6,0l0,0c-0.9-2.3-0.8-4.5-0.1-6.8c0.4-0.4,1-0.5,1.6-0.5
		c3.6-0.1,7.2-0.1,10.7,0c0.4,0,0.8,0.1,1.1,0.3C120,100.6,120.1,100.6,120.2,100.7z"/>
	<path class="st1" d="M113.4,18.9c0,2.3,0,4.5,0,6.8l0,0c-2.1,1-4.2,0.6-6.3,0.3c-0.7-0.1-1-0.8-1-1.4c-0.1-1.8-0.3-3.6,0.2-5.4
		c0.1-0.2,0.2-0.4,0.4-0.5C108.9,18.3,111.1,18,113.4,18.9L113.4,18.9z"/>
	<path class="st2" d="M45.2,46.2c-2.2,0-4.5,0-6.8,0c0-2.4,0-4.6,0-6.8l0,0c2-1.1,4.2-0.6,6.3-0.4c0.5,0,0.9,0.4,0.9,0.9
		C45.8,42,46.2,44.2,45.2,46.2L45.2,46.2z"/>
	<path class="st2" d="M133.8,39.4c0,2.2,0,4.5,0,6.8c-2.4,0-4.6,0-6.8,0l0,0c-1.1-2-0.6-4.2-0.4-6.3c0-0.5,0.4-0.9,0.9-0.9
		C129.6,38.8,131.8,38.3,133.8,39.4L133.8,39.4z"/>
	<path class="st2" d="M127,93.9c0,2.2,0,4.5,0,6.8c-2.4,0-4.6,0-6.8,0l0,0c-1.1-2-0.6-4.2-0.4-6.3c0-0.5,0.4-0.9,0.9-0.9
		C122.8,93.3,125,92.9,127,93.9L127,93.9z"/>
	<path class="st1" d="M99.7,18.9c0-2.2,0-4.4,0-6.8c2.3,0,4.6,0,6.8,0l0,0c0.9,2.3,0.9,4.5,0,6.8l0,0C104.3,19.8,102,19.8,99.7,18.9
		L99.7,18.9z"/>
	<path class="st2" d="M52,100.7c-2.2,0-4.5,0-6.8,0c0-2.4,0-4.6,0-6.8l0,0c2-1.1,4.2-0.6,6.3-0.4c0.5,0,0.9,0.4,0.9,0.9
		C52.6,96.6,53.1,98.7,52,100.7L52,100.7z"/>
	<path class="st3" d="M99.7,18.9c2.3,0,4.5,0,6.8,0c0,2.2,0,4.4,0,6.8c2.4,0,4.6,0,6.8,0c0,2.2,0,4.4,0,6.8c-2.3,0-4.4,0-6.8,0
		c0,2.4,0,4.6,0,6.9c-0.1,0.1-0.2,0.2-0.2,0.2c-0.8,0.4-1.7,0.3-2.5,0.3c-11.8,0-23.6,0-35.4,0c-0.8,0-1.7,0.1-2.5-0.3
		c-0.1-0.1-0.2-0.2-0.2-0.2c0-2.2,0-4.4,0-6.8c-2.3,0-4.4,0-6.8,0c0-2.4,0-4.6,0-6.9c13.5,0,27.1,0,40.9,0
		C99.7,23.4,99.7,21.2,99.7,18.9z"/>
	<path class="st4" d="M106.6,100.8c0,2.3,0,4.5,0,6.8c-13.6,0-27.3,0-40.9,0c0-2.3,0-4.5,0-6.8c0.1-0.1,0.2-0.2,0.2-0.2
		c0.8-0.5,1.6-0.4,2.5-0.4c11.8,0,23.7,0,35.5,0c0.7,0,1.5,0,2.2,0.2C106.3,100.4,106.4,100.6,106.6,100.8z"/>
	<path class="st4" d="M133.8,39.4c-2.2,0-4.4,0-6.8,0c0,2.4,0,4.6,0,6.8c-2.2,0-4.4,0-6.8,0c0,6.9,0,13.6,0,20.4
		c-0.1,0.1-0.2,0.2-0.2,0.2c-2.3,0.5-4.5,0.7-6.8-0.2c-0.5-0.8-0.4-1.6-0.4-2.5c0-2.8,0-5.6,0-8.3c0-0.6,0-1.3-0.4-2.2
		c-6.4-0.3-12.9,0-19.5-0.2c-4.5,0.1-9,0.1-13.6,0c-6.5,0.2-13.1-0.1-19.4,0.2c-0.6,0.9-0.5,1.7-0.5,2.4c0,2.8,0,5.5,0,8.3
		c0,0.7,0,1.5-0.4,2.2c-2.1,1.2-4.4,0.6-6.6,0.4c-0.2-0.1-0.4-0.2-0.5-0.4c0-6.7,0-13.4,0-20.4c-2.3,0-4.5,0-6.8,0
		c0-2.2,0-4.4,0-6.8c-2.4,0-4.6,0-6.8,0c0-2.2,0-4.4,0-6.8c4.6,0,9.1,0,13.6,0c0,2.2,0,4.4,0,6.8c4.7,0,9.2,0,13.6,0l0,0
		c0.7,0.8,0.5,1.7,0.6,2.6c0.1,1.1-0.1,2.2,0.2,3.2c1.4,0.6,37.2,0.7,39.2,0.1c0.5-1,0.3-2.2,0.3-3.3c0.1-0.9-0.1-1.8,0.6-2.6l0,0
		c4.4,0,8.9,0,13.6,0c0-2.3,0-4.6,0-6.8c4.5,0,8.9,0,13.6,0C133.8,34.9,133.8,37.1,133.8,39.4z"/>
	<path class="st4" d="M52,100.7c0-2.2,0-4.4,0-6.8c-2.4,0-4.6,0-6.8,0c0-9.1,0-18.2,0-27.3c2.3,0,4.5,0,6.8,0l0.1,0.1
		c0.9,1.4,0.4,2.9,0.5,4.4c0.1,0.7,0.1,1.5,0,2.2c0.1,2-0.2,4.1,0.2,6.1c2,0.8,4,0,5.9,0.6c0.2,0.1,0.3,0.2,0.4,0.4
		c0.6,2.2,0.2,4.4,0.2,6.6c0.2,2-0.2,3.9,0.2,5.9c1,0.6,2.1,0.3,3.2,0.4c1,0.1,2.2-0.2,3.1,0.5c0.6,2.3,0.8,4.5-0.1,6.8l-0.1,0.1
		C61.1,100.8,56.5,100.7,52,100.7z"/>
	<path class="st4" d="M127,93.9c-2.2,0-4.4,0-6.8,0c0,2.4,0,4.6,0,6.8c-4.5,0-9.1,0-13.6,0h-0.1c-0.9-2.2-0.6-4.5-0.1-6.7
		c0.7-0.7,1.7-0.5,2.6-0.6c1.2-0.1,2.4,0.2,3.7-0.3c0.4-1.9,0.1-3.9,0.2-5.9c0-2.2-0.3-4.4,0.2-6.6c0.1-0.2,0.2-0.4,0.4-0.5
		c1.9-0.7,3.9,0,6-0.6c0.4-2,0.1-4.1,0.2-6.1c-0.1-1.6,0-3.3,0-4.9c0-0.6,0-1.2,0.5-1.7l0.1-0.1c2.3,0,4.5,0,6.8,0
		C127,75.7,127,84.8,127,93.9z"/>
	<path class="st3" d="M106.5,18.9c0-2.3,0-4.5,0-6.8c2.2,0,4.4,0,6.8,0c0,2.4,0,4.6,0,6.8C111.1,18.9,108.8,18.9,106.5,18.9z"/>
	<path class="st1" d="M106.6,39.4c0,2.2,0,4.4,0,6.7c-13.7,0-27.1,0-40.9,0c0-2.2,0-4.5,0-6.7C79.3,39.4,92.9,39.4,106.6,39.4z"/>
	<path class="st5" d="M106.5,93.9c0,2.3,0,4.5-0.1,6.8c-13.6,0-27.2,0-40.8,0c0-2.3,0-4.5-0.1-6.8c-0.9-2.3-0.8-4.6-0.1-6.9
		c2.3-0.8,4.5-0.7,6.8-0.1c0.7,0.6,0.6,1.5,0.6,2.4c0.1,1.2-0.2,2.5,0.3,3.8c1.6,0.5,3.3,0.3,5.1,0.1c0.6-1.2,0.3-2.4,0.4-3.6
		c0.1-0.9-0.2-1.9,0.6-2.7c0.4-0.2,0.8-0.3,1.3-0.3c3.7-0.1,7.3-0.1,11,0c0.4,0,0.8,0.1,1.1,0.3c0.8,0.7,0.6,1.6,0.7,2.5
		c0.1,1.2-0.2,2.5,0.3,3.8c1.7,0.3,3.3,0.3,5,0c0.7-1.1,0.3-2.3,0.4-3.4c0.1-1-0.2-2.1,0.6-2.9c2.3-0.6,4.6-0.7,6.9,0.1
		C107.4,89.3,107.5,91.6,106.5,93.9z"/>
	<path class="st5" d="M79.2,53c4.6,0,9.1,0,13.7,0c0.7,0.8,0.5,1.7,0.5,2.6c0,4.8,0,9.6,0,14.5c0,0.8-0.1,1.6,0.3,2.4
		c0.7,0.5,1.5,0.4,2.3,0.4c4.8,0,9.6,0,14.5,0c0.8,0,1.7-0.1,2.5,0.2c0.2,0.1,0.4,0.2,0.5,0.4c0.4,2.3,0.8,4.5-0.2,6.7l0,0
		c-0.6,0.6-1.4,0.6-2.2,0.6c-16.7,0-33.4,0-50.1,0c-0.8,0-1.6,0-2.2-0.6l0,0c-1-2.2-0.6-4.4-0.3-6.7c0.1-0.2,0.3-0.3,0.5-0.5
		c0.8-0.3,1.7-0.3,2.5-0.3c4.8,0,9.6,0,14.5,0c0.8,0,1.6,0.1,2.3-0.3c0.5-0.7,0.4-1.5,0.4-2.3c0-4.9,0-9.8,0-14.6
		C78.7,54.7,78.6,53.8,79.2,53z"/>
	<path class="st6" d="M79.2,53c0,6.7,0,13.5,0,20.4c-6.9,0-13.6,0-20.3,0c-1-2.2-0.9-4.5-0.1-6.8c0-4.5,0-8.9,0-13.6
		C65.7,53,72.5,53,79.2,53z"/>
	<path class="st6" d="M113.3,73.4c-6.7,0-13.4,0-20.3,0c0-6.8,0-13.6,0-20.4c6.7,0,13.5,0,20.5,0c0,4.6,0,9.1,0,13.6
		C114.2,68.9,114.3,71.2,113.3,73.4z"/>
	<path class="st5" d="M113.3,73.4c0-2.3,0.1-4.5,0.1-6.8c2.2,0,4.5,0.1,6.7,0.1c0,2.3,0,4.5,0.1,6.8
		C117.9,74.4,115.7,74.3,113.3,73.4L113.3,73.4z"/>
	<path class="st5" d="M58.8,66.6c0,2.3,0.1,4.5,0.1,6.8l-0.1,0.1c-2.3,0.8-4.5,0.8-6.8,0c0-2.3,0-4.5,0.1-6.8
		C54.3,66.7,56.5,66.6,58.8,66.6z"/>
	<path class="st2" d="M58.8,80.3c18.2,0,36.4,0,54.5,0c0,2.3,0,4.6,0,6.8c-2.3,0.9-4.5,0.8-6.8,0c-2.3,0-4.6,0-6.9,0
		c-2.3,0.8-4.5,0.8-6.8,0c-4.6,0-9.1,0-13.7,0c-2.3,0.8-4.5,0.8-6.8,0c-2.3,0-4.6,0-6.9,0c-2.3,0.8-4.5,0.8-6.8,0
		C58.8,84.8,58.8,82.5,58.8,80.3z"/>
	<path class="st2" d="M52,73.5c2.3,0,4.5,0,6.8,0c0,2.3,0,4.5,0.1,6.8c-2.2,0-4.4,0-6.8,0C52,77.9,52,75.7,52,73.5z"/>
	<path class="st6" d="M58.8,87.1c2.3,0,4.5,0,6.8,0c0,2.2,0,4.5,0,6.7c-2.2,0-4.4,0-6.8,0C58.8,91.6,58.8,89.3,58.8,87.1z"/>
	<path class="st2" d="M113.4,73.5c2.3,0,4.5,0,6.8,0c0,2.2,0,4.4,0,6.8c-2.4,0-4.6,0-6.8,0C113.4,78,113.4,75.8,113.4,73.5z"/>
	<path class="st6" d="M106.6,87.1c2.3,0,4.5,0,6.8,0c0,2.2,0,4.4,0,6.8c-2.3,0-4.6,0-6.8,0C106.6,91.6,106.6,89.4,106.6,87.1z"/>
	<path class="st6" d="M72.5,87.1c2.3,0,4.5,0,6.8,0c0,2.2,0,4.4,0,6.7c-2.3,0-4.4,0-6.8,0C72.5,91.6,72.5,89.4,72.5,87.1z"/>
	<path class="st6" d="M92.9,87.1c2.3,0,4.5,0,6.8,0c0,2.2,0,4.4,0,6.7c-2.3,0-4.4,0-6.8,0C92.9,91.6,92.9,89.4,92.9,87.1z"/>
	<path d="M65.7,59.9c2.2,0,4.4,0,6.6,0c0,2.2,0,4.4,0,6.7c-2.2,0-4.3,0-6.6,0C65.7,64.4,65.7,62.2,65.7,59.9z"/>
	<path d="M106.4,66.6c-2.2,0-4.3,0-6.6,0c0-2.2,0-4.3,0-6.6c2.1,0,4.3,0,6.6,0C106.4,62,106.4,64.2,106.4,66.6z"/>
</g>
</svg>
