<?xml version="1.0" encoding="utf-8"?>
<!-- Generator: Adobe Illustrator 19.1.0, SVG Export Plug-In . SVG Version: 6.00 Build 0)  -->
<!DOCTYPE svg PUBLIC "-//W3C//DTD SVG 1.1//EN" "http://www.w3.org/Graphics/SVG/1.1/DTD/svg11.dtd">
<svg version="1.1" id="Layer_1" xmlns="http://www.w3.org/2000/svg" xmlns:xlink="http://www.w3.org/1999/xlink" x="0px" y="0px"
	 viewBox="-51 53 24 24" style="enable-background:new -51 53 24 24;" xml:space="preserve">
<style type="text/css">
	.st0{fill:#361E2A;}
	.st1{fill:#1A1129;}
	.st2{fill:#7F4762;}
	.st3{fill:#705597;}
	.st4{fill:#9476C2;}
	.st5{fill:#FEFEFE;}
</style>
<g id="Layer_2">
</g>
<g>
	<path class="st0" d="M-44.9,57.8c0-0.5,0-0.9,0-1.4c2.9,0,5.8,0,8.6,0c0,0,0,0,0,0.1c0.1,0.4,0.1,0.8,0.1,1.2
		c0,0.2-0.1,0.3-0.3,0.3c-0.1,0-0.2,0-0.4,0c-2.5,0-5,0-7.5,0C-44.5,57.9-44.7,57.9-44.9,57.8C-44.8,57.8-44.9,57.8-44.9,57.8z"/>
	<path class="st1" d="M-34.8,75.1c0,0.5,0,0.9,0,1.4c-2.9,0-5.7,0-8.6,0c0-0.5,0-0.9,0-1.4c0,0,0,0,0.1,0C-43.2,75-43,75-42.8,75
		c2.5,0,5,0,7.5,0C-35.2,75-35,75-34.8,75.1C-34.8,75.1-34.8,75.1-34.8,75.1z"/>
	<path class="st1" d="M-49.2,60.7c-0.5,0-0.9,0-1.4,0c0-1,0-1.9,0-2.9c1.4,0,2.9,0,4.3,0c0.2,0.5,0.2,0.9,0,1.4
		c-0.1,0.1-0.3,0.1-0.5,0.1c-0.6,0-1.2,0-1.8,0c-0.2,0-0.3,0-0.5,0.1C-49.2,59.8-49,60.2-49.2,60.7C-49.2,60.6-49.2,60.7-49.2,60.7z
		"/>
	<path class="st1" d="M-31.9,57.8c1.4,0,2.9,0,4.3,0c0,0.9,0,1.9,0,2.9c-0.5,0-0.9,0-1.4,0c0,0,0,0,0,0c-0.1-0.2-0.1-0.5-0.1-0.7
		c0-0.2,0-0.3-0.1-0.5c-0.1-0.1-0.3-0.1-0.5-0.1c-0.6,0-1.2,0-1.8,0c-0.2,0-0.4,0-0.5-0.1C-32.1,58.8-32.1,58.3-31.9,57.8z"/>
	<path class="st1" d="M-47.8,72.2c-0.5,0-0.9,0-1.4,0c0-1.9,0-3.8,0-5.8c0.5,0,0.9,0,1.4,0c0,0,0,0,0,0.1c0.1,0.2,0.1,0.3,0.1,0.5
		c0,1.6,0,3.1,0,4.7C-47.6,71.8-47.6,72-47.8,72.2C-47.7,72.2-47.7,72.2-47.8,72.2z"/>
	<path class="st1" d="M-30.5,66.4c0.5,0,0.9,0,1.4,0c0,1.9,0,3.8,0,5.8c-0.5,0-0.9,0-1.4,0c0,0,0,0,0-0.1c-0.1-0.2-0.1-0.3-0.1-0.5
		c0-1.6,0-3.1,0-4.7C-30.6,66.8-30.6,66.7-30.5,66.4C-30.5,66.5-30.5,66.5-30.5,66.4z"/>
	<path class="st0" d="M-34.8,54.9c0-0.5,0-0.9,0-1.4c1,0,1.9,0,2.9,0c0,0.9,0,1.9,0,2.9c-0.5,0-0.9,0-1.4,0c0,0,0,0,0,0
		c-0.1-0.2-0.1-0.5-0.1-0.8c0-0.2,0-0.3-0.1-0.5C-33.9,54.9-34.3,55.1-34.8,54.9C-34.8,54.9-34.8,54.9-34.8,54.9z"/>
	<path class="st1" d="M-47.8,66.4c0-1.4,0-2.9,0-4.3c0,0,0,0,0.1,0c0.4-0.1,0.8-0.1,1.2-0.1c0.2,0,0.3,0.2,0.3,0.4
		c0,0.3,0,0.6,0,0.9c0,0.8,0,1.7,0,2.5c0,0.2,0,0.4-0.1,0.6C-46.8,66.6-47.3,66.6-47.8,66.4L-47.8,66.4z"/>
	<path class="st1" d="M-30.5,62.1c0,1.4,0,2.9,0,4.3l0,0c-0.5,0.2-1,0.2-1.5,0c-0.1-0.2-0.1-0.3-0.1-0.5c0-1.1,0-2.2,0-3.3
		c0-0.5,0.1-0.6,0.6-0.6C-31.1,62-30.8,61.9-30.5,62.1C-30.5,62.1-30.5,62.1-30.5,62.1z"/>
	<path class="st0" d="M-46.3,59.2c0-0.5,0-1,0-1.4c0.5,0,1,0,1.4,0l0,0c0.1,0.2,0.1,0.4,0.1,0.5c0,0.2,0,0.5,0.1,0.7
		c0.2,0.1,0.3,0.1,0.5,0.1c0.9,0,0.9,0,0.9,0.9c0,0.2,0.1,0.5-0.1,0.7c0,0-0.1,0.1-0.1,0.1c-0.8,0.1-1.7,0-2.5,0
		c-0.1,0-0.3-0.1-0.3-0.2C-46.4,60.1-46.5,59.7-46.3,59.2z"/>
	<path class="st0" d="M-31.9,57.8c0,0.5,0,1,0,1.4c0.2,0.4,0.1,0.9,0.1,1.3c0,0.1-0.1,0.2-0.2,0.2c-0.9,0-1.8,0.1-2.7,0
		c-0.3-0.5-0.2-0.9-0.1-1.4c0-0.2,0.2-0.2,0.4-0.2c0.3,0,0.6,0,0.9-0.1c0.2-0.4,0-0.8,0.2-1.2c0,0,0,0,0,0
		C-32.9,57.8-32.4,57.8-31.9,57.8z"/>
	<path class="st1" d="M-43.4,75.1c-1,0-1.9,0-2.9,0c0-0.5,0-1,0-1.4c0,0,0,0,0.1,0c0.2-0.1,0.3-0.1,0.5-0.1c0.6,0,1.2,0,1.8,0
		c0.2,0,0.4,0,0.5,0.1C-43.3,74.1-43.2,74.6-43.4,75.1L-43.4,75.1z"/>
	<path class="st1" d="M-31.9,73.6c0,0.5,0,0.9,0,1.4c-1,0-1.9,0-2.9,0l0,0c-0.2-0.5-0.2-1,0-1.4c0.1-0.1,0.2-0.1,0.3-0.1
		c0.8,0,1.5,0,2.3,0C-32.1,73.5-32,73.6-31.9,73.6C-31.9,73.6-31.9,73.6-31.9,73.6z"/>
	<path class="st0" d="M-33.3,56.4c0,0.5,0,1,0,1.4l0,0c-0.4,0.2-0.9,0.1-1.3,0.1c-0.2,0-0.2-0.2-0.2-0.3c0-0.4-0.1-0.8,0-1.1
		c0,0,0-0.1,0.1-0.1C-34.3,56.2-33.8,56.1-33.3,56.4L-33.3,56.4z"/>
	<path class="st1" d="M-47.8,62.1c-0.5,0-0.9,0-1.4,0c0-0.5,0-1,0-1.4l0,0c0.4-0.2,0.9-0.1,1.3-0.1c0.1,0,0.2,0.1,0.2,0.2
		C-47.6,61.2-47.5,61.7-47.8,62.1L-47.8,62.1z"/>
	<path class="st1" d="M-29,60.7c0,0.5,0,0.9,0,1.4c-0.5,0-1,0-1.4,0l0,0c-0.2-0.4-0.1-0.9-0.1-1.3c0-0.1,0.1-0.2,0.2-0.2
		C-29.9,60.6-29.4,60.5-29,60.7L-29,60.7z"/>
	<path class="st1" d="M-30.5,72.2c0,0.5,0,0.9,0,1.4c-0.5,0-1,0-1.4,0l0,0c-0.2-0.4-0.1-0.9-0.1-1.3c0-0.1,0.1-0.2,0.2-0.2
		C-31.3,72.1-30.9,72-30.5,72.2L-30.5,72.2z"/>
	<path class="st0" d="M-36.2,56.4c0-0.5,0-0.9,0-1.4c0.5,0,1,0,1.4,0l0,0c0.2,0.5,0.2,1,0,1.4l0,0C-35.3,56.5-35.7,56.5-36.2,56.4
		L-36.2,56.4z"/>
	<path class="st1" d="M-46.3,73.6c-0.5,0-0.9,0-1.4,0c0-0.5,0-1,0-1.4l0,0c0.4-0.2,0.9-0.1,1.3-0.1c0.1,0,0.2,0.1,0.2,0.2
		C-46.2,72.8-46.1,73.2-46.3,73.6L-46.3,73.6z"/>
	<path class="st2" d="M-36.2,56.4c0.5,0,1,0,1.4,0c0,0.5,0,0.9,0,1.4c0.5,0,1,0,1.4,0c0,0.5,0,0.9,0,1.4c-0.5,0-0.9,0-1.4,0
		c0,0.5,0,1,0,1.5c0,0,0,0-0.1,0c-0.2,0.1-0.4,0.1-0.5,0.1c-2.5,0-5,0-7.5,0c-0.2,0-0.4,0-0.5-0.1c0,0,0,0-0.1,0c0-0.5,0-0.9,0-1.4
		c-0.5,0-0.9,0-1.4,0c0-0.5,0-1,0-1.5c2.9,0,5.7,0,8.6,0C-36.2,57.3-36.2,56.8-36.2,56.4z"/>
	<path class="st3" d="M-34.8,73.7c0,0.5,0,1,0,1.4c-2.9,0-5.8,0-8.7,0c0-0.5,0-1,0-1.4c0,0,0,0,0-0.1c0.2-0.1,0.3-0.1,0.5-0.1
		c2.5,0,5,0,7.5,0c0.2,0,0.3,0,0.5,0C-34.8,73.6-34.8,73.6-34.8,73.7z"/>
	<path class="st3" d="M-29,60.7c-0.5,0-0.9,0-1.4,0c0,0.5,0,1,0,1.4c-0.5,0-0.9,0-1.4,0c0,1.5,0,2.9,0,4.3c0,0,0,0,0,0.1
		c-0.5,0.1-1,0.2-1.4,0c-0.1-0.2-0.1-0.3-0.1-0.5c0-0.6,0-1.2,0-1.8c0-0.1,0-0.3-0.1-0.5c-1.3-0.1-2.7,0-4.1,0c-1,0-1.9,0-2.9,0
		c-1.4,0-2.8,0-4.1,0c-0.1,0.2-0.1,0.4-0.1,0.5c0,0.6,0,1.2,0,1.8c0,0.2,0,0.3-0.1,0.5c-0.4,0.2-0.9,0.1-1.4,0.1c0,0-0.1,0-0.1-0.1
		c0-1.4,0-2.8,0-4.3c-0.5,0-1,0-1.4,0c0-0.5,0-0.9,0-1.4c-0.5,0-1,0-1.4,0c0-0.5,0-0.9,0-1.4c1,0,1.9,0,2.9,0c0,0.5,0,0.9,0,1.4
		c1,0,1.9,0,2.9,0l0,0c0.1,0.2,0.1,0.4,0.1,0.5c0,0.2,0,0.5,0.1,0.7c0.3,0.1,7.9,0.2,8.3,0c0.1-0.2,0.1-0.5,0.1-0.7
		c0-0.2,0-0.4,0.1-0.5l0,0c0.9,0,1.9,0,2.9,0c0-0.5,0-1,0-1.4c0.9,0,1.9,0,2.9,0C-29,59.7-29,60.2-29,60.7z"/>
	<path class="st3" d="M-46.3,73.6c0-0.5,0-0.9,0-1.4c-0.5,0-1,0-1.4,0c0-1.9,0-3.8,0-5.8c0.5,0,1,0,1.4,0l0,0
		c0.2,0.3,0.1,0.6,0.1,0.9c0,0.2,0,0.3,0,0.5c0,0.4,0,0.9,0,1.3c0.4,0.2,0.9,0,1.3,0.1c0,0,0.1,0.1,0.1,0.1c0.1,0.5,0,0.9,0.1,1.4
		c0,0.4,0,0.8,0,1.2c0.2,0.1,0.4,0.1,0.7,0.1c0.2,0,0.5,0,0.7,0.1c0.1,0.5,0.2,1,0,1.4l0,0C-44.4,73.7-45.4,73.7-46.3,73.6z"/>
	<path class="st3" d="M-30.5,72.2c-0.5,0-0.9,0-1.4,0c0,0.5,0,1,0,1.4c-1,0-1.9,0-2.9,0l0,0c-0.2-0.5-0.1-0.9,0-1.4
		c0.2-0.1,0.4-0.1,0.5-0.1c0.2,0,0.5,0,0.8-0.1c0.1-0.4,0-0.8,0-1.3c0-0.5-0.1-0.9,0-1.4c0,0,0-0.1,0.1-0.1c0.4-0.2,0.8,0,1.3-0.1
		c0.1-0.4,0-0.9,0.1-1.3c0-0.3,0-0.7,0-1c0-0.1,0-0.3,0.1-0.4l0,0c0.5,0,1,0,1.4,0C-30.5,68.4-30.5,70.3-30.5,72.2z"/>
	<path class="st2" d="M-34.8,56.4c0-0.5,0-1,0-1.4c0.5,0,0.9,0,1.4,0c0,0.5,0,1,0,1.4C-33.8,56.4-34.3,56.4-34.8,56.4z"/>
	<path class="st0" d="M-34.8,60.7c0,0.5,0,0.9,0,1.4c-2.9,0-5.7,0-8.7,0c0-0.5,0-0.9,0-1.4C-40.5,60.7-37.7,60.7-34.8,60.7z"/>
	<path class="st4" d="M-34.8,72.2c0,0.5,0,1,0,1.4c-2.9,0-5.7,0-8.6,0c0-0.5,0-1,0-1.4c-0.2-0.5-0.2-1,0-1.5c0.5-0.2,1-0.1,1.4,0
		c0.2,0.1,0.1,0.3,0.1,0.5c0,0.3,0,0.5,0.1,0.8c0.3,0.1,0.7,0.1,1.1,0c0.1-0.3,0.1-0.5,0.1-0.8c0-0.2,0-0.4,0.1-0.6
		c0.1-0.1,0.2-0.1,0.3-0.1c0.8,0,1.6,0,2.3,0c0.1,0,0.2,0,0.2,0.1c0.2,0.1,0.1,0.3,0.1,0.5c0,0.3,0,0.5,0.1,0.8
		c0.4,0.1,0.7,0.1,1.1,0c0.1-0.2,0.1-0.5,0.1-0.7c0-0.2,0-0.4,0.1-0.6c0.5-0.1,1-0.1,1.4,0C-34.6,71.2-34.6,71.7-34.8,72.2z"/>
	<path class="st4" d="M-40.6,63.6c1,0,1.9,0,2.9,0c0.1,0.2,0.1,0.4,0.1,0.6c0,1,0,2,0,3.1c0,0.2,0,0.3,0.1,0.5
		c0.1,0.1,0.3,0.1,0.5,0.1c1,0,2,0,3.1,0c0.2,0,0.4,0,0.5,0c0,0,0.1,0,0.1,0.1c0.1,0.5,0.2,1,0,1.4l0,0c-0.1,0.1-0.3,0.1-0.5,0.1
		c-3.5,0-7.1,0-10.6,0c-0.2,0-0.3,0-0.5-0.1l0,0c-0.2-0.5-0.1-0.9-0.1-1.4c0,0,0.1-0.1,0.1-0.1c0.2-0.1,0.4-0.1,0.5-0.1
		c1,0,2,0,3.1,0c0.2,0,0.3,0,0.5-0.1c0.1-0.2,0.1-0.3,0.1-0.5c0-1,0-2.1,0-3.1C-40.7,63.9-40.7,63.7-40.6,63.6z"/>
	<path class="st5" d="M-40.6,63.6c0,1.4,0,2.9,0,4.3c-1.5,0-2.9,0-4.3,0c-0.2-0.5-0.2-1,0-1.4c0-0.9,0-1.9,0-2.9
		C-43.4,63.6-42,63.6-40.6,63.6z"/>
	<path class="st5" d="M-33.4,67.9c-1.4,0-2.8,0-4.3,0c0-1.4,0-2.9,0-4.3c1.4,0,2.8,0,4.3,0c0,1,0,1.9,0,2.9
		C-33.2,66.9-33.1,67.4-33.4,67.9z"/>
	<path class="st4" d="M-33.4,67.9c0-0.5,0-1,0-1.4c0.5,0,0.9,0,1.4,0c0,0.5,0,1,0,1.4C-32.4,68.1-32.9,68.1-33.4,67.9L-33.4,67.9z"
		/>
	<path class="st4" d="M-44.9,66.4c0,0.5,0,1,0,1.4l0,0c-0.5,0.2-1,0.2-1.4,0c0-0.5,0-1,0-1.4C-45.8,66.4-45.4,66.4-44.9,66.4z"/>
	<path class="st1" d="M-44.9,69.3c3.8,0,7.7,0,11.5,0c0,0.5,0,1,0,1.4c-0.5,0.2-1,0.2-1.4,0c-0.5,0-1,0-1.5,0c-0.5,0.2-1,0.2-1.4,0
		c-1,0-1.9,0-2.9,0c-0.5,0.2-1,0.2-1.4,0c-0.5,0-1,0-1.5,0c-0.5,0.2-1,0.2-1.4,0C-44.9,70.3-44.9,69.8-44.9,69.3z"/>
	<path class="st1" d="M-46.3,67.9c0.5,0,1,0,1.4,0c0,0.5,0,1,0,1.4c-0.5,0-0.9,0-1.4,0C-46.3,68.8-46.3,68.4-46.3,67.9z"/>
	<path class="st5" d="M-44.9,70.8c0.5,0,1,0,1.4,0c0,0.5,0,1,0,1.4c-0.5,0-0.9,0-1.4,0C-44.9,71.7-44.9,71.2-44.9,70.8z"/>
	<path class="st1" d="M-33.3,67.9c0.5,0,1,0,1.4,0c0,0.5,0,0.9,0,1.4c-0.5,0-1,0-1.4,0C-33.3,68.8-33.3,68.4-33.3,67.9z"/>
	<path class="st5" d="M-34.8,70.8c0.5,0,1,0,1.4,0c0,0.5,0,0.9,0,1.4c-0.5,0-1,0-1.4,0C-34.8,71.7-34.8,71.3-34.8,70.8z"/>
	<path class="st5" d="M-42,70.8c0.5,0,1,0,1.4,0c0,0.5,0,0.9,0,1.4c-0.5,0-0.9,0-1.4,0C-42,71.7-42,71.2-42,70.8z"/>
	<path class="st5" d="M-37.7,70.8c0.5,0,1,0,1.4,0c0,0.5,0,0.9,0,1.4c-0.5,0-0.9,0-1.4,0C-37.7,71.7-37.7,71.2-37.7,70.8z"/>
	<path d="M-43.4,65c0.5,0,0.9,0,1.4,0c0,0.5,0,0.9,0,1.4c-0.5,0-0.9,0-1.4,0C-43.4,66-43.4,65.5-43.4,65z"/>
	<path d="M-34.8,66.4c-0.5,0-0.9,0-1.4,0c0-0.5,0-0.9,0-1.4c0.4,0,0.9,0,1.4,0C-34.8,65.5-34.8,65.9-34.8,66.4z"/>
</g>
</svg>
