<?xml version="1.0" encoding="utf-8"?>
<!-- Generator: Adobe Illustrator 19.1.0, SVG Export Plug-In . SVG Version: 6.00 Build 0)  -->
<!DOCTYPE svg PUBLIC "-//W3C//DTD SVG 1.1//EN" "http://www.w3.org/Graphics/SVG/1.1/DTD/svg11.dtd">
<svg version="1.1" id="Layer_1" xmlns="http://www.w3.org/2000/svg" xmlns:xlink="http://www.w3.org/1999/xlink" x="0px" y="0px"
	 viewBox="0 0 128 128" style="enable-background:new 0 0 128 128;" xml:space="preserve">
<style type="text/css">
	.st0{opacity:0.6;fill:#D1D1D1;}
	.st1{fill:url(#SVGID_1_);}
	.st2{fill:#361E2A;}
	.st3{fill:#1A1129;}
	.st4{fill:#7F4762;}
	.st5{fill:#705597;}
	.st6{fill:#9476C2;}
	.st7{fill:#FEFEFE;}
</style>
<path class="st0" d="M120.7,128h-110c-4,0-7.3-3.2-7.3-7.3v-110c0-4,3.2-7.3,7.3-7.3h110c4,0,7.3,3.2,7.3,7.3v110
	C128,124.8,124.8,128,120.7,128z"/>
<linearGradient id="SVGID_1_" gradientUnits="userSpaceOnUse" x1="62.3072" y1="124.5935" x2="62.3072" y2="9.158611e-002">
	<stop  offset="0" style="stop-color:#000000"/>
	<stop  offset="2.608901e-002" style="stop-color:#010101"/>
	<stop  offset="1" style="stop-color:#1A1A1A"/>
</linearGradient>
<path class="st1" d="M118.4,124.6H6.2c-3.4,0-6.1-2.7-6.1-6.1V6.2c0-3.4,2.7-6.1,6.1-6.1h112.3c3.4,0,6.1,2.7,6.1,6.1v112.3
	C124.6,121.9,121.8,124.6,118.4,124.6z"/>
<g>
	<path class="st2" d="M40.2,31.7c0-1.8,0-3.7,0-5.7c11.4,0,22.7,0,33.9,0c0.1,0.1,0.1,0.1,0.2,0.2c0.5,1.5,0.3,3.1,0.2,4.6
		c0,0.8-0.5,1.2-1.3,1.3c-0.5,0.1-0.9,0.1-1.4,0.1c-9.8,0-19.6,0-29.4,0c-0.7,0-1.4,0.1-2.1-0.3C40.3,31.8,40.2,31.7,40.2,31.7z"/>
	<path class="st3" d="M79.8,99.5c0,1.8,0,3.7,0,5.6c-11.3,0-22.5,0-33.9,0c0-1.8,0-3.7,0-5.6c0.1-0.1,0.1-0.1,0.2-0.2
		c0.7-0.3,1.4-0.3,2.1-0.3c9.8,0,19.6,0,29.4,0c0.7,0,1.4-0.1,2.1,0.3C79.6,99.4,79.7,99.5,79.8,99.5z"/>
	<path class="st3" d="M23.2,43c-1.8,0-3.7,0-5.6,0c0-3.8,0-7.4,0-11.3c5.6,0,11.3,0,16.9,0c0.8,1.9,0.6,3.7,0.1,5.6
		c-0.6,0.5-1.3,0.4-2,0.5c-2.3,0-4.6,0-6.9,0c-0.6,0-1.2,0-1.8,0.3c-0.6,1.5,0.1,3.2-0.5,4.7C23.3,42.8,23.3,42.9,23.2,43z"/>
	<path class="st3" d="M91.1,31.7c5.6,0,11.2,0,16.9,0c0,3.7,0,7.4,0,11.3c-1.8,0-3.7,0-5.6,0c-0.1-0.1-0.1-0.1-0.2-0.2
		c-0.4-0.9-0.2-1.9-0.3-2.9c0-0.6,0.1-1.2-0.3-1.8c-0.5-0.4-1.2-0.3-1.8-0.3c-2.3,0-4.6,0-6.9,0c-0.7,0-1.4,0.1-2-0.4
		C90.5,35.5,90.3,33.6,91.1,31.7z"/>
	<path class="st3" d="M28.9,88.2c-1.8,0-3.7,0-5.6,0c0-7.5,0-15,0-22.6c1.8,0,3.7,0,5.6,0c0.1,0.1,0.1,0.1,0.2,0.2
		c0.3,0.6,0.3,1.3,0.3,1.9c0,6.1,0,12.2,0,18.3c0,0.7,0.1,1.3-0.3,1.9C29,88.1,28.9,88.2,28.9,88.2z"/>
	<path class="st3" d="M96.7,65.6c1.8,0,3.7,0,5.6,0c0,7.5,0,15,0,22.6c-1.8,0-3.7,0-5.6,0c-0.1-0.1-0.1-0.1-0.2-0.2
		c-0.3-0.6-0.3-1.3-0.3-1.9c0-6.1,0-12.2,0-18.3c0-0.7-0.1-1.3,0.3-1.9C96.6,65.8,96.7,65.7,96.7,65.6z"/>
	<path class="st2" d="M79.8,20.3c0-1.8,0-3.7,0-5.6c3.8,0,7.5,0,11.2,0c0,3.7,0,7.4,0,11.2c-1.8,0-3.7,0-5.6,0
		c-0.1-0.1-0.1-0.1-0.2-0.2c-0.4-1-0.2-2-0.3-3c0-0.6,0.1-1.2-0.3-1.8c-1.6-0.6-3.3,0.1-4.8-0.5C79.9,20.5,79.8,20.4,79.8,20.3z"/>
	<path class="st3" d="M28.9,65.6c0-5.7,0-11.3,0-17c0.1-0.1,0.1-0.1,0.2-0.2c1.5-0.5,3.1-0.3,4.6-0.2c0.9,0,1.2,0.7,1.3,1.6
		c0.1,1.2,0,2.4,0,3.7c0,3.3,0,6.7,0,10c0,0.7,0.1,1.5-0.4,2.2C32.7,66.3,30.8,66.4,28.9,65.6L28.9,65.6z"/>
	<path class="st3" d="M96.7,48.6c0,5.7,0,11.3,0,17l0,0c-1.9,0.8-3.8,0.7-5.7,0c-0.5-0.6-0.4-1.3-0.4-2c0-4.3,0-8.6,0-13
		c0-2.2,0.3-2.5,2.4-2.5c1.2,0,2.4-0.2,3.5,0.3C96.6,48.5,96.7,48.6,96.7,48.6z"/>
	<path class="st2" d="M34.5,37.3c0-1.9,0-3.8,0-5.6c1.9,0,3.8,0,5.7-0.1l0,0c0.6,0.6,0.4,1.4,0.5,2.2c0,0.9-0.1,1.8,0.2,2.7
		c0.6,0.5,1.3,0.4,2,0.4c3.4,0,3.4,0.1,3.4,3.5c0,0.9,0.2,1.9-0.5,2.7c-0.2,0.1-0.3,0.2-0.5,0.2c-3.3,0.3-6.7,0.2-10,0
		c-0.5,0-1-0.3-1.1-0.8C34,40.8,33.6,39.1,34.5,37.3z"/>
	<path class="st2" d="M91.1,31.7c0,1.9,0,3.8,0,5.6c0.9,1.7,0.5,3.5,0.3,5.2c-0.1,0.5-0.5,0.8-0.9,0.8c-3.5,0.1-7.1,0.5-10.6-0.2
		c-1-1.8-0.6-3.6-0.3-5.5c0.1-0.7,0.9-0.7,1.5-0.8c1.2-0.1,2.3,0.1,3.6-0.2c0.7-1.6-0.1-3.3,0.6-4.8c0.1-0.1,0.1-0.1,0.2-0.2
		C87.3,31.7,89.2,31.7,91.1,31.7z"/>
	<path class="st3" d="M45.8,99.5c-3.7,0-7.5,0-11.3,0c0-1.9,0-3.8,0-5.7c0.1-0.1,0.1-0.1,0.2-0.2c0.6-0.3,1.3-0.3,1.9-0.3
		c2.4,0,4.8,0,7.2,0c0.7,0,1.4-0.1,2,0.4C46.5,95.8,46.6,97.7,45.8,99.5L45.8,99.5z"/>
	<path class="st3" d="M91.1,93.9c0,1.8,0,3.6,0,5.7c-3.8,0-7.6,0-11.3,0l0,0c-0.8-1.9-0.7-3.8-0.1-5.7c0.4-0.3,0.8-0.4,1.3-0.4
		c3,0,5.9-0.1,8.9,0c0.3,0,0.7,0.1,1,0.2C90.9,93.8,91,93.8,91.1,93.9z"/>
	<path class="st2" d="M85.4,26c0,1.9,0,3.8,0,5.6l0,0c-1.7,0.8-3.5,0.5-5.2,0.3c-0.6-0.1-0.8-0.6-0.8-1.2c-0.1-1.5-0.2-3,0.1-4.5
		c0.1-0.2,0.2-0.3,0.3-0.4C81.7,25.5,83.6,25.2,85.4,26L85.4,26z"/>
	<path class="st3" d="M28.9,48.6c-1.8,0-3.7,0-5.7,0c0-2,0-3.8,0-5.7l0,0c1.7-0.9,3.5-0.5,5.2-0.3c0.4,0,0.7,0.4,0.8,0.8
		C29.3,45.2,29.7,47,28.9,48.6L28.9,48.6z"/>
	<path class="st3" d="M102.4,43c0,1.8,0,3.7,0,5.7c-2,0-3.8,0-5.7,0l0,0c-0.9-1.7-0.5-3.5-0.3-5.2c0-0.4,0.4-0.7,0.8-0.8
		C98.9,42.5,100.7,42.1,102.4,43L102.4,43z"/>
	<path class="st3" d="M96.7,88.2c0,1.8,0,3.7,0,5.7c-2,0-3.8,0-5.7,0l0,0c-0.9-1.7-0.5-3.5-0.3-5.2c0-0.4,0.4-0.7,0.8-0.8
		C93.3,87.8,95.1,87.4,96.7,88.2L96.7,88.2z"/>
	<path class="st2" d="M74.1,26c0-1.8,0-3.7,0-5.7c1.9,0,3.8,0,5.7,0l0,0c0.7,1.9,0.7,3.8,0,5.7l0,0C77.9,26.8,76,26.7,74.1,26
		L74.1,26z"/>
	<path class="st3" d="M34.5,93.9c-1.8,0-3.7,0-5.7,0c0-2,0-3.8,0-5.7l0,0c1.7-0.9,3.5-0.5,5.2-0.3c0.4,0,0.7,0.4,0.8,0.8
		C35,90.4,35.4,92.2,34.5,93.9L34.5,93.9z"/>
	<path class="st4" d="M74.1,26c1.9,0,3.8,0,5.7,0c0,1.8,0,3.6,0,5.7c2,0,3.8,0,5.6,0c0,1.8,0,3.6,0,5.6c-1.9,0-3.7,0-5.7,0
		c0,2,0,3.9,0,5.7c-0.1,0.1-0.1,0.1-0.2,0.2c-0.7,0.3-1.4,0.3-2.1,0.3c-9.8,0-19.6,0-29.4,0c-0.7,0-1.4,0.1-2.1-0.3
		c-0.1-0.1-0.1-0.1-0.2-0.2c0-1.8,0-3.6,0-5.6c-1.9,0-3.7,0-5.7,0c0-2,0-3.9,0-5.7c11.2,0,22.5,0,33.9,0
		C74.1,29.7,74.1,27.9,74.1,26z"/>
	<path class="st5" d="M79.8,93.9c0,1.9,0,3.8,0,5.6c-11.3,0-22.6,0-34,0c0-1.9,0-3.8,0-5.6c0.1-0.1,0.1-0.1,0.2-0.2
		c0.6-0.4,1.4-0.3,2.1-0.3c9.8,0,19.7,0,29.5,0c0.6,0,1.2,0,1.8,0.2C79.5,93.7,79.7,93.8,79.8,93.9z"/>
	<path class="st5" d="M102.4,43c-1.8,0-3.6,0-5.7,0c0,2,0,3.8,0,5.7c-1.8,0-3.6,0-5.6,0c0,5.7,0,11.3,0,16.9
		c-0.1,0.1-0.1,0.1-0.2,0.2c-1.9,0.4-3.8,0.6-5.6-0.1C84.9,65,85,64.3,85,63.6c0-2.3,0-4.6,0-6.9c0-0.5,0-1-0.3-1.8
		c-5.3-0.3-10.7,0-16.2-0.1c-3.8,0.1-7.5,0.1-11.3,0c-5.4,0.2-10.8-0.1-16.1,0.1c-0.5,0.8-0.4,1.4-0.4,2c0,2.3,0,4.6,0,6.9
		c0,0.6,0,1.2-0.3,1.8c-1.8,1-3.6,0.5-5.4,0.4c-0.2-0.1-0.3-0.2-0.4-0.3c0-5.6,0-11.1,0-16.9c-1.9,0-3.8,0-5.6,0c0-1.8,0-3.6,0-5.7
		c-2,0-3.8,0-5.7,0c0-1.8,0-3.6,0-5.6c3.9,0,7.6,0,11.3,0c0,1.8,0,3.6,0,5.6c3.9,0,7.6,0,11.3,0l0,0c0.6,0.6,0.5,1.4,0.5,2.1
		c0,0.9-0.1,1.8,0.2,2.6c1.2,0.5,30.9,0.6,32.5,0.1c0.5-0.9,0.2-1.8,0.3-2.7c0-0.7-0.1-1.5,0.5-2.1l0,0c3.7,0,7.4,0,11.3,0
		c0-1.9,0-3.8,0-5.6c3.7,0,7.4,0,11.3,0C102.4,39.3,102.4,41.1,102.4,43z"/>
	<path class="st5" d="M34.5,93.9c0-1.8,0-3.6,0-5.7c-2,0-3.8,0-5.7,0c0-7.5,0-15.1,0-22.6c1.9,0,3.8,0,5.6,0l0.1,0.1
		c0.7,1.2,0.3,2.4,0.4,3.7c0,0.6,0,1.2,0,1.8c0.1,1.7-0.1,3.4,0.2,5c1.6,0.7,3.3,0,4.9,0.5c0.2,0.1,0.3,0.2,0.4,0.4
		c0.5,1.8,0.2,3.7,0.2,5.5c0.1,1.6-0.1,3.3,0.2,4.9c0.9,0.5,1.8,0.3,2.6,0.3c0.9,0.1,1.8-0.2,2.6,0.4c0.5,1.9,0.7,3.8-0.1,5.6
		l-0.1,0.1C42,93.9,38.3,93.9,34.5,93.9z"/>
	<path class="st5" d="M96.7,88.2c-1.8,0-3.6,0-5.7,0c0,2,0,3.8,0,5.7c-3.8,0-7.5,0-11.3,0l-0.1-0.1c-0.7-1.9-0.5-3.7-0.1-5.6
		c0.6-0.6,1.4-0.4,2.1-0.5c1-0.1,2,0.1,3.1-0.3c0.3-1.6,0.1-3.3,0.2-4.9c0-1.8-0.2-3.7,0.2-5.5c0.1-0.2,0.2-0.3,0.3-0.4
		c1.6-0.6,3.2,0,5-0.5c0.4-1.7,0.1-3.4,0.2-5.1c-0.1-1.4,0-2.7,0-4.1c0-0.5,0-1,0.4-1.4l0.1-0.1c1.9,0,3.8,0,5.6,0
		C96.7,73.2,96.7,80.7,96.7,88.2z"/>
	<path class="st4" d="M79.8,26c0-1.9,0-3.8,0-5.7c1.8,0,3.6,0,5.6,0c0,2,0,3.8,0,5.6C83.5,26,81.6,26,79.8,26z"/>
	<path class="st2" d="M79.8,43c0,1.8,0,3.7,0,5.6c-11.3,0-22.5,0-34,0c0-1.8,0-3.7,0-5.6C57.1,43,68.5,43,79.8,43z"/>
	<path class="st6" d="M79.8,88.2c0,1.9,0,3.8-0.1,5.6c-11.3,0-22.6,0-33.8,0c0-1.9,0-3.8-0.1-5.6c-0.8-1.9-0.7-3.8-0.1-5.7
		c1.9-0.7,3.8-0.5,5.7-0.1c0.6,0.5,0.5,1.3,0.5,2c0.1,1-0.1,2.1,0.2,3.2c1.4,0.4,2.8,0.3,4.2,0.1c0.5-1,0.3-2,0.3-3
		c0.1-0.8-0.1-1.6,0.5-2.3c0.3-0.2,0.7-0.3,1.1-0.3c3,0,6.1-0.1,9.1,0c0.3,0,0.7,0.1,0.9,0.2c0.7,0.6,0.5,1.4,0.6,2.1
		c0.1,1-0.2,2.1,0.3,3.1c1.4,0.3,2.8,0.2,4.1,0c0.5-0.9,0.3-1.9,0.3-2.8c0.1-0.8-0.2-1.7,0.5-2.4c1.9-0.5,3.8-0.6,5.7,0.1
		C80.5,84.4,80.5,86.3,79.8,88.2z"/>
	<path class="st6" d="M57.1,54.3c3.8,0,7.6,0,11.4,0c0.5,0.6,0.4,1.4,0.4,2.2c0,4,0,8,0,12c0,0.7-0.1,1.3,0.2,2
		c0.6,0.5,1.2,0.3,1.9,0.3c4,0,8,0,12,0c0.7,0,1.4-0.1,2.1,0.2c0.2,0.1,0.3,0.2,0.4,0.3c0.4,1.9,0.7,3.8-0.2,5.6l0,0
		c-0.5,0.5-1.2,0.5-1.9,0.5c-13.8,0-27.7,0-41.5,0c-0.7,0-1.3,0-1.9-0.5l0,0c-0.9-1.8-0.5-3.7-0.2-5.5c0.1-0.2,0.2-0.3,0.4-0.4
		c0.7-0.3,1.4-0.2,2.1-0.2c4,0,8,0,12,0c0.7,0,1.3,0.1,1.9-0.3c0.4-0.6,0.3-1.3,0.3-1.9c0-4,0-8.1,0-12.1
		C56.7,55.7,56.6,55,57.1,54.3z"/>
	<path class="st7" d="M57.1,54.3c0,5.6,0,11.2,0,16.9c-5.7,0-11.3,0-16.9,0c-0.9-1.9-0.7-3.7-0.1-5.6c0-3.7,0-7.4,0-11.3
		C45.9,54.3,51.5,54.3,57.1,54.3z"/>
	<path class="st7" d="M85.4,71.2c-5.6,0-11.1,0-16.9,0c0-5.6,0-11.3,0-16.9c5.6,0,11.2,0,17,0c0,3.8,0,7.5,0,11.3
		C86.1,67.5,86.2,69.4,85.4,71.2z"/>
	<path class="st6" d="M85.4,71.2c0-1.9,0.1-3.8,0.1-5.6c1.9,0,3.7,0,5.6,0.1c0,1.9,0,3.8,0,5.6C89.2,72,87.3,72,85.4,71.2L85.4,71.2
		z"/>
	<path class="st6" d="M40.1,65.6c0,1.9,0.1,3.8,0.1,5.6l-0.1,0.1c-1.9,0.7-3.7,0.7-5.6,0c0-1.9,0-3.8,0-5.6
		C36.4,65.6,38.3,65.6,40.1,65.6z"/>
	<path class="st3" d="M40.2,76.9c15.1,0,30.2,0,45.3,0c0,1.9,0,3.8,0,5.7c-1.9,0.7-3.7,0.7-5.6,0c-1.9,0-3.8,0-5.7,0
		c-1.9,0.7-3.7,0.7-5.6,0c-3.8,0-7.6,0-11.4,0c-1.9,0.7-3.7,0.7-5.6,0c-1.9,0-3.8,0-5.7,0c-1.9,0.7-3.8,0.7-5.6,0
		C40.2,80.7,40.2,78.8,40.2,76.9z"/>
	<path class="st3" d="M34.5,71.3c1.9,0,3.7,0,5.6,0c0,1.9,0,3.7,0.1,5.6c-1.8,0-3.6,0-5.7,0C34.5,75,34.5,73.1,34.5,71.3z"/>
	<path class="st7" d="M40.2,82.6c1.9,0,3.8,0,5.6,0c0,1.9,0,3.7,0,5.6c-1.8,0-3.6,0-5.6,0C40.2,86.3,40.2,84.4,40.2,82.6z"/>
	<path class="st3" d="M85.5,71.3c1.9,0,3.7,0,5.6,0c0,1.8,0,3.6,0,5.6c-2,0-3.8,0-5.7,0C85.4,75.1,85.5,73.2,85.5,71.3z"/>
	<path class="st7" d="M79.8,82.6c1.9,0,3.8,0,5.6,0c0,1.8,0,3.6,0,5.6c-1.9,0-3.8,0-5.6,0C79.8,86.4,79.8,84.5,79.8,82.6z"/>
	<path class="st7" d="M51.5,82.6c1.9,0,3.7,0,5.6,0c0,1.8,0,3.6,0,5.5c-1.9,0-3.6,0-5.6,0C51.5,86.3,51.5,84.5,51.5,82.6z"/>
	<path class="st7" d="M68.5,82.6c1.9,0,3.7,0,5.6,0c0,1.8,0,3.6,0,5.5c-1.9,0-3.6,0-5.6,0C68.5,86.3,68.5,84.5,68.5,82.6z"/>
	<path d="M45.9,60c1.9,0,3.6,0,5.5,0c0,1.8,0,3.7,0,5.5c-1.8,0-3.6,0-5.5,0C45.9,63.7,45.9,61.9,45.9,60z"/>
	<path d="M79.7,65.6c-1.8,0-3.6,0-5.5,0c0-1.8,0-3.6,0-5.5c1.7,0,3.6,0,5.5,0C79.7,61.8,79.7,63.6,79.7,65.6z"/>
</g>
</svg>
